<?xml version="1.0" encoding="UTF-8"?>
<svg xmlns="http://www.w3.org/2000/svg" viewBox="0 0 121 159" role="img" aria-labelledby="torsoTitle torsoDesc">
  <title id="torsoTitle">Torso lead placement</title>
  <desc id="torsoDesc">Side profile of a human torso with electrode leads shown as dots along the left chest.</desc>
  <defs>
    <linearGradient id="torsoGradient" x1="33.88" y1="12.72" x2="99.22" y2="155.82" gradientUnits="userSpaceOnUse">
      <stop offset="0" stop-color="#7BB8A9" />
      <stop offset="0.4" stop-color="#5C9D8D" />
      <stop offset="1" stop-color="#3F6E67" />
    </linearGradient>
  </defs>
  <path d="M 36.484 6.148 C 31.622 10.417, 30.003 13.919, 29.985 20.200 C 29.977 23.115, 29.292 28.378, 28.463 31.896 C 27.115 37.613, 27.117 38.471, 28.477 39.975 C 29.315 40.900, 30 42.902, 30 44.422 C 30 45.943, 31.450 49.612, 33.223 52.576 L 36.446 57.965 41.797 57.336 L 47.149 56.707 46.824 59.986 C 46.531 62.950, 45.683 63.730, 38 68.104 C 33.325 70.765, 28.375 72.960, 27 72.982 C 19.946 73.094, 11.052 77.230, 5.250 83.097 C 1.247 87.145, 1.004 87.717, 1.070 92.947 L 1.139 98.500 2.537 94 C 5.387 84.820, 14.571 77.775, 25.500 76.385 C 33.089 75.420, 51.011 65.069, 50.994 61.661 C 50.991 61.022, 50.508 58.769, 49.921 56.653 C 48.800 52.617, 47.822 52.406, 40 54.510 C 37.924 55.068, 33 46.717, 33 42.638 C 33 40.857, 32.496 38.896, 31.881 38.281 C 31.070 37.470, 31.052 35.829, 31.814 32.331 C 32.393 29.674, 33.104 24.474, 33.393 20.776 C 34.123 11.463, 37.960 6.647, 46.764 3.996 C 49.133 3.282, 48.867 3.160, 44.785 3.086 C 40.855 3.014, 39.472 3.524, 36.484 6.148 M 62.521 4.394 C 76.299 8.711, 79.876 21.855, 72.126 39.695 C 68.425 48.214, 68.152 53.617, 71.114 59.736 C 73.785 65.252, 74.816 65.893, 90 71.481 C 111.272 79.309, 112.897 80.191, 116.112 85.653 L 118.966 90.500 118.983 87.331 C 119.008 82.681, 116.271 78.694, 111.609 76.592 C 107.346 74.669, 89.966 68.061, 81.844 65.275 C 73.086 62.271, 69.907 50.972, 75.011 40.988 C 82.098 27.124, 81.308 14.125, 72.919 6.545 C 69.440 3.403, 68.398 3.008, 63.747 3.067 L 58.500 3.134 62.521 4.394 M 1.199 131.500 C 1.199 146.934, 1.559 158.378, 2 157 C 3.043 153.743, 3.043 109.257, 2 106 C 1.559 104.622, 1.199 116.066, 1.199 131.500 M 25.610 112.678 C 25.290 114.230, 23.866 122.250, 22.445 130.500 C 21.024 138.750, 19.287 148.537, 18.585 152.250 C 17.405 158.488, 17.441 159, 19.050 159 C 20.772 159, 21.722 155.286, 24.680 137 C 25.381 132.666, 25.433 132.610, 26.086 135.500 C 26.458 137.150, 26.817 143.113, 26.882 148.750 C 26.994 158.489, 27.106 159, 29.119 159 C 31.188 159, 31.223 158.744, 30.576 148.250 C 29.903 137.333, 27.056 110.766, 26.497 110.178 C 26.328 110.002, 25.929 111.127, 25.610 112.678 M 95.537 121.750 C 95.159 123.813, 93.733 130.173, 92.366 135.885 C 89.312 148.655, 89.307 159, 92.356 159 C 94.065 159, 94.189 158.483, 93.581 153.897 C 92.828 148.222, 96.666 128.616, 98.035 131.140 C 98.662 132.294, 103.013 156.040, 103.003 158.250 C 103.001 158.662, 103.675 159, 104.500 159 C 106.629 159, 106.426 155.429, 103.416 139.862 C 101.152 128.153, 98.018 118, 96.668 118 C 96.423 118, 95.914 119.688, 95.537 121.750" fill="url(#torsoGradient)" stroke="#3F6E67" stroke-width="1" shape-rendering="geometricPrecision" />
</svg>